<svg width="27" height="26" viewBox="0 0 27 26" fill="none" xmlns="http://www.w3.org/2000/svg">
<path d="M12.341 25.7623C12.0603 25.7373 11.7801 25.7025 11.5011 25.6587V16.8525H8.30125V13.2099H11.5011V10.4336C11.5011 7.2748 13.3827 5.53021 16.2615 5.53021C17.2065 5.54339 18.1492 5.62579 19.0822 5.77678V8.87802H17.4932C15.9278 8.87802 15.4396 9.84949 15.4396 10.8462V13.2099H18.9348L18.3759 16.8525H15.4396V25.6587C15.1605 25.7025 14.8805 25.7373 14.5998 25.7623C21.0306 25.1912 26.0726 19.7894 26.0726 13.21C26.0726 6.24995 20.4304 0.607727 13.4704 0.607727C6.51039 0.607727 0.868156 6.24995 0.868156 13.21C0.868156 19.7894 5.91017 25.1912 12.341 25.7623Z" fill="#1877F2"/>
</svg>
